<?xml version="1.0" standalone="no"?><!DOCTYPE svg PUBLIC "-//W3C//DTD SVG 1.1//EN" "http://www.w3.org/Graphics/SVG/1.1/DTD/svg11.dtd"><svg t="1726475895210" class="icon" viewBox="0 0 1024 1024" version="1.1" xmlns="http://www.w3.org/2000/svg" p-id="4391" xmlns:xlink="http://www.w3.org/1999/xlink" width="20" height="20"><path d="M518.144 683.008H136.704c-18.944 0-34.304-15.36-34.304-34.304v-7.168c0-18.944 15.36-34.304 34.304-34.304h381.44c18.944 0 34.304 15.36 34.304 34.304v7.168c0 18.944-15.36 34.304-34.304 34.304z" fill="#E3EEFF" p-id="4392"></path><path d="M515.584 817.664h-5.632c-37.376 0-67.584-30.208-67.584-67.584 0-37.376 30.208-67.584 67.584-67.584h5.632v-76.288H165.888v76.288h128c37.376 0 67.584 30.208 67.584 67.584 0 37.376-30.208 67.584-67.584 67.584H165.376v76.288h350.208v-76.288z" fill="#E3EEFF" p-id="4393"></path><path d="M536.576 492.032c0-13.824-10.752-25.088-24.576-25.088H261.632c-13.824 0-25.6 11.264-25.6 25.6 0 13.824 11.264 25.6 25.6 25.6H363.52c25.088 0 45.056 19.968 45.056 45.056s-19.968 45.056-45.056 45.056H278.528v50.688H512v-50.688h-3.584c-25.088 0-45.056-19.968-45.056-45.056s19.968-45.056 45.056-45.056h4.096c13.312-1.536 24.064-12.8 24.064-26.112zM676.864 817.664H140.288c-20.992 0-37.888 16.896-37.888 37.888 0 20.992 16.896 37.888 37.888 37.888h536.576v-75.776zM690.688 817.664h32.256v76.288h-32.256zM761.856 817.664h20.48v76.288h-20.48zM841.216 817.664H793.6v76.288h48.128c20.992 0 37.888-16.896 37.888-37.888 0-21.504-16.896-38.4-38.4-38.4z" fill="#E3EEFF" p-id="4394"></path><path d="M880.128 367.104h-34.816c-2.048 0-4.096-2.048-4.096-4.096s2.048-4.096 4.096-4.096h34.816c2.048 0 4.096 2.048 4.096 4.096s-1.536 4.096-4.096 4.096z" fill="#2B77EF" p-id="4395"></path><path d="M862.72 384.512c-2.048 0-4.096-2.048-4.096-4.096v-34.816c0-2.048 2.048-4.096 4.096-4.096s4.096 2.048 4.096 4.096v34.816c0 2.048-1.536 4.096-4.096 4.096z" fill="#2B77EF" p-id="4396"></path><path d="M200.704 684.544c-16.896 0-31.744-13.312-33.28-30.72-1.024-8.704 2.048-17.408 7.68-24.576 5.632-6.656 13.824-11.264 22.528-11.776 8.704-0.512 17.408 2.048 24.576 7.68 6.656 5.632 11.264 13.824 11.776 22.528 1.536 18.432-11.776 34.304-30.208 36.352-1.536 0.512-2.048 0.512-3.072 0.512z m0-58.368h-2.048c-6.656 0.512-12.8 3.584-16.896 8.704s-6.144 11.776-5.632 18.432c1.024 13.824 13.312 24.064 27.136 23.04 13.824-1.024 24.064-13.312 23.04-27.136-0.512-6.656-3.584-12.8-8.704-16.896-5.632-4.096-11.264-6.144-16.896-6.144zM488.448 219.648c-6.656 0-13.312-2.56-18.432-6.656-5.632-5.12-9.216-11.776-10.24-19.456-1.536-15.872 10.24-29.696 26.112-30.72 15.872-1.536 29.696 10.24 30.72 26.112 1.536 15.872-10.24 29.696-26.112 30.72h-2.048z m0-48.64h-1.536c-11.264 1.024-19.456 10.752-18.432 22.016 0.512 5.632 3.072 10.24 7.168 13.824 4.096 3.584 9.216 5.12 14.848 4.608 11.264-1.024 19.456-10.752 18.432-22.016-0.512-5.632-3.072-10.24-7.168-13.824-3.584-3.072-8.192-4.608-13.312-4.608z" fill="#82A0F6" p-id="4397"></path><path d="M300.544 269.824c-2.048 0-4.096-2.048-4.096-4.096v-25.6l-17.92 17.92c-1.536 1.536-4.096 1.536-5.632 0-1.536-1.536-1.536-4.096 0-5.632l17.92-17.92h-25.6c-2.048 0-4.096-2.048-4.096-4.096s2.048-4.096 4.096-4.096h25.6l-17.92-17.92c-1.536-1.536-1.536-4.096 0-5.632 1.536-1.536 4.096-1.536 5.632 0l17.92 17.92v-25.6c0-2.048 2.048-4.096 4.096-4.096s4.096 2.048 4.096 4.096v25.6l17.92-17.92c1.536-1.536 4.096-1.536 5.632 0 1.536 1.536 1.536 4.096 0 5.632l-17.92 17.92h25.6c2.048 0 4.096 2.048 4.096 4.096s-2.048 4.096-4.096 4.096h-25.6l17.92 17.92c1.536 1.536 1.536 4.096 0 5.632-1.536 1.536-4.096 1.536-5.632 0l-17.92-17.92v25.6c0 2.56-2.048 4.096-4.096 4.096z" fill="#82A0F6" p-id="4398"></path><path d="M864.768 540.16c-2.048 0-4.096-2.048-4.096-4.096v-25.6l-17.92 17.92c-1.536 1.536-4.096 1.536-5.632 0-1.536-1.536-1.536-4.096 0-5.632l17.92-17.92h-25.6c-2.048 0-4.096-2.048-4.096-4.096s2.048-4.096 4.096-4.096h25.6l-17.92-17.92c-1.536-1.536-1.536-4.096 0-5.632 1.536-1.536 4.096-1.536 5.632 0l17.92 17.92v-25.6c0-2.048 2.048-4.096 4.096-4.096s4.096 2.048 4.096 4.096v25.6l17.92-17.92c1.536-1.536 4.096-1.536 5.632 0 1.536 1.536 1.536 4.096 0 5.632l-17.92 17.92h25.6c2.048 0 4.096 2.048 4.096 4.096s-2.048 4.096-4.096 4.096h-25.6l17.92 17.92c1.536 1.536 1.536 4.096 0 5.632-1.536 1.536-4.096 1.536-5.632 0l-17.92-17.92v25.6c0 2.56-1.536 4.096-4.096 4.096z" fill="#82A0F6" p-id="4399"></path><path d="M719.872 348.16c0 24.064-16.384 43.52-36.864 43.52 20.48 0 36.864 19.456 36.864 43.52 0-24.064 16.384-43.52 36.864-43.52-20.48 0-36.864-19.456-36.864-43.52zM666.112 130.048c0 17.92-12.288 32.256-27.136 32.256 14.848 0 27.136 14.336 27.136 32.256 0-17.92 12.288-32.256 27.136-32.256-14.848 0.512-27.136-14.336-27.136-32.256z" fill="#76A6EF" p-id="4400"></path><path d="M243.712 782.336c-10.24 0-18.944-8.192-18.944-18.944 0-10.24 8.192-18.944 18.944-18.944 10.24 0 18.944 8.192 18.944 18.944s-8.192 18.944-18.944 18.944z m0-29.184c-5.632 0-10.24 4.608-10.24 10.24s4.608 10.24 10.24 10.24 10.24-4.608 10.24-10.24-4.096-10.24-10.24-10.24z" fill="#82A0F6" p-id="4401"></path><path d="M188.928 349.184c-0.512 23.04 14.336 42.496 34.304 43.008-19.456-0.512-35.84 17.92-36.864 40.96 0.512-23.04-14.336-42.496-34.304-43.008 19.968 0.512 36.352-17.408 36.864-40.96z" fill="#76A6EF" p-id="4402"></path><path d="M801.28 819.2l-193.024 2.048V507.904c0-24.064 17.408-43.52 39.424-44.032l113.152-1.024c22.016 0 40.448 19.456 40.448 44.032v312.32z" fill="#C7DDFF" p-id="4403"></path><path d="M760.832 462.848l-25.088 0.512c20.992 1.536 37.376 19.968 37.376 43.52v312.32l-164.864 1.536v0.512l193.024-2.048V506.368c0-24.064-17.92-44.032-40.448-43.52z" fill="#76A6EF" p-id="4404"></path><path d="M602.112 827.904V507.904c0-27.648 20.48-50.176 46.08-50.176l113.152-1.024c11.776 0 23.04 4.608 31.744 13.312 9.728 9.728 15.36 23.04 15.36 37.376v318.976l-206.336 1.536z m159.232-358.4l-113.152 1.024c-18.432 0-32.768 16.896-32.768 37.376v306.688l179.712-2.048V506.368c0-10.752-4.096-20.992-11.264-27.648-6.656-6.144-14.336-9.216-22.528-9.216z" fill="#2B77EF" p-id="4405"></path><path d="M637.952 821.248l-327.168-2.56V304.128c0-14.848 16.384-31.744 37.376-31.744l251.904-2.56c20.992 0 37.888 16.896 37.888 37.376v514.048z" fill="#C7DDFF" p-id="4406"></path><path d="M358.4 818.688V304.128c0-14.848 16.384-31.744 37.376-31.744l208.896-2.048c-1.536 0-3.072-0.512-4.608-0.512l-251.904 2.048c-20.48 0-37.376 16.896-37.376 31.744v514.56l327.168 2.56v-0.512l-279.552-1.536z" fill="#FFFFFF" p-id="4407"></path><path d="M569.344 269.824l-39.936 0.512c34.304 3.584 60.928 32.256 60.928 67.584v483.328l-279.552 2.56v0.512l327.168-3.072V337.408c0-37.376-30.72-68.096-68.608-67.584z" fill="#76A6EF" p-id="4408"></path><path d="M316.416 830.976c-3.072 0-6.144-1.024-8.704-3.584-2.56-2.56-3.584-5.632-3.584-8.704v-152.064c0-3.584 3.072-6.656 6.656-6.656s6.656 3.072 6.656 6.656v150.528l313.856-3.072V322.048c0-12.288-4.608-23.552-13.312-32.256-8.704-8.704-20.48-13.312-32.768-13.312l-222.72 2.048c-25.088 0-45.056 20.48-45.056 45.568v17.92c0 3.584-3.072 6.656-6.656 6.656s-6.656-3.072-6.656-6.656v-17.92c0-32.256 26.112-58.368 58.368-58.88l222.72-2.048c15.872 0 30.72 6.144 41.984 16.896 11.264 11.264 17.408 26.112 17.408 41.984v493.568c0 6.656-5.632 12.288-12.288 12.288l-315.904 3.072z" fill="#2B77EF" p-id="4409"></path><path d="M310.784 641.536c-3.584 0-6.656-3.072-6.656-6.656v-22.016c0-3.584 3.072-6.656 6.656-6.656s6.656 3.072 6.656 6.656v22.016c0 3.584-3.072 6.656-6.656 6.656zM310.784 587.776c-3.584 0-6.656-3.072-6.656-6.656V381.952c0-3.584 3.072-6.656 6.656-6.656s6.656 3.072 6.656 6.656v199.168c0 4.096-3.072 6.656-6.656 6.656z" fill="#2B77EF" p-id="4410"></path><path d="M536.064 387.072H427.008c-6.656 0-12.288-5.632-12.288-12.288 0-6.656 5.632-12.288 12.288-12.288h109.056c6.656 0 12.288 5.632 12.288 12.288 0 6.656-5.632 12.288-12.288 12.288z" fill="#F68282" p-id="4411"></path><path d="M481.28 441.344c-6.656 0-12.288-5.632-12.288-12.288V320c0-6.656 5.632-12.288 12.288-12.288 6.656 0 12.288 5.632 12.288 12.288v109.056c0.512 7.168-5.12 12.288-12.288 12.288z" fill="#F68282" p-id="4412"></path><path d="M553.984 571.392H408.576c-3.584 0-6.656-3.072-6.656-6.656s3.072-6.656 6.656-6.656h145.408c3.584 0 6.656 3.072 6.656 6.656s-3.072 6.656-6.656 6.656zM553.984 626.688H408.576c-3.584 0-6.656-3.072-6.656-6.656s3.072-6.656 6.656-6.656h145.408c3.584 0 6.656 3.072 6.656 6.656s-3.072 6.656-6.656 6.656zM552.448 827.904H401.92v-134.656h150.016v134.656z m-137.216-13.312h123.392V706.56H415.232v108.032zM755.712 827.904h-74.24v-134.656h74.24v134.656z m-60.928-13.312h47.616V706.56h-47.616v108.032zM749.056 571.392h-60.928c-3.584 0-6.656-3.072-6.656-6.656s3.072-6.656 6.656-6.656h60.928c3.584 0 6.656 3.072 6.656 6.656s-3.072 6.656-6.656 6.656zM749.056 626.688h-60.928c-3.584 0-6.656-3.072-6.656-6.656s3.072-6.656 6.656-6.656h60.928c3.584 0 6.656 3.072 6.656 6.656s-3.072 6.656-6.656 6.656z" fill="#2B77EF" p-id="4413"></path><path d="M908.8 663.552c-14.336-28.672-51.2-41.472-80.896-33.792-9.216 2.048-56.832 20.48-56.832 33.28 0-12.8-47.616-31.232-56.832-33.28-29.696-7.168-66.56 5.632-80.896 33.792-8.704 16.896-7.168 37.376-1.536 55.808 10.752 31.744 33.28 59.392 54.784 84.48 14.336 16.384 29.184 32.256 44.544 47.104 5.12 5.12 39.424 29.696 39.424 35.84 0-6.144 34.304-30.72 39.424-35.84 15.36-14.848 30.72-30.72 44.544-47.104 21.504-25.088 44.032-52.736 54.784-84.48 7.168-18.432 8.192-38.912-0.512-55.808z" fill="#F68282" p-id="4414"></path><path d="M908.8 662.528c-13.824-27.648-48.64-40.448-77.824-34.304 20.48 4.096 39.424 15.872 49.152 34.304 8.704 16.896 7.168 37.376 1.536 55.808-10.752 31.744-33.28 59.392-54.784 84.48-14.336 16.384-29.184 32.256-44.544 47.104-3.072 3.072-14.848 11.776-25.088 19.968 7.68 6.656 14.336 12.8 14.336 15.872 0-6.144 34.304-30.72 39.424-35.84 15.36-14.848 30.72-30.72 44.544-47.104 21.504-25.088 44.032-52.736 54.784-84.48 6.144-17.92 7.168-38.912-1.536-55.808z" fill="#DE7575" p-id="4415"></path><path d="M777.216 887.296s0.512-0.512 0.512-1.536h-13.312c0 1.024 0.512 1.536 0.512 1.536-2.048-4.096-19.968-17.92-27.136-24.064-5.632-4.096-8.704-6.656-10.24-8.704-16.896-16.384-31.744-32.256-45.056-47.616-17.408-19.968-33.792-39.936-45.568-62.464-1.536-3.072-0.512-7.168 2.56-9.216 3.072-1.536 7.168-0.512 9.216 2.56 11.264 21.504 27.136 40.448 44.032 60.416 12.8 15.36 27.648 30.72 44.544 46.592 1.024 1.024 5.12 4.096 9.216 7.68 12.8 9.728 20.48 16.384 25.6 21.504 4.608-5.12 12.8-11.776 25.6-21.504 4.096-3.072 8.192-6.144 9.216-7.68 16.896-16.384 31.232-31.744 44.544-46.592 22.528-26.624 43.52-52.736 53.76-82.432 3.584-10.752 8.192-31.744-1.024-50.688-13.312-27.136-48.128-36.864-73.216-30.208-13.824 3.584-50.176 19.968-51.712 27.136h-13.312c-1.536-7.168-37.888-23.552-51.712-27.136-25.6-6.144-59.904 3.584-73.216 30.208-9.216 18.944-4.608 39.936-1.024 50.688 1.024 3.584-0.512 7.168-4.096 8.192-3.584 1.024-7.168-0.512-8.192-4.096-7.168-22.016-6.656-43.52 1.536-60.928 16.384-32.768 57.856-45.056 88.576-37.376 0.512 0 39.424 12.288 55.296 27.648 15.872-15.36 54.784-27.136 55.296-27.648 30.72-7.68 72.192 4.608 88.576 37.376 8.704 16.896 9.216 38.912 1.536 60.928-10.752 31.744-32.768 59.392-56.32 86.528-13.312 15.36-28.16 31.232-45.056 47.616-1.536 1.536-5.12 4.096-10.24 8.704-9.728 6.144-27.648 20.48-29.696 24.576z" fill="#2B77EF" p-id="4416"></path></svg>